<svg width="900" height="900" viewBox="0 0 900 900" fill="none" xmlns="http://www.w3.org/2000/svg">
    <g clip-path="url(#clip0_0_3)">
        <path opacity="0.34" d="M0.295746 450.368C0.295746 569.618 47.6675 683.984 131.99 768.306C216.312 852.628 330.678 900 449.927 900C569.177 900 683.543 852.628 767.865 768.306C852.187 683.984 899.559 569.618 899.559 450.368C899.559 331.119 852.187 216.753 767.865 132.431C683.543 48.1083 569.177 0.736542 449.927 0.736542C330.678 0.736542 216.312 48.1083 131.99 132.431C47.6675 216.753 0.295746 331.119 0.295746 450.368Z" fill="#2B67ED"/>
        <path d="M188.706 453.368C188.704 487.674 195.459 521.644 208.586 553.338C221.712 585.033 240.953 613.832 265.21 638.09C289.467 662.349 318.265 681.591 349.959 694.72C381.652 707.849 415.622 714.606 449.927 714.606C484.233 714.606 518.202 707.849 549.896 694.72C581.59 681.591 610.388 662.349 634.645 638.09C658.902 613.832 678.143 585.033 691.269 553.338C704.396 521.644 711.151 487.674 711.149 453.368C711.151 419.063 704.396 385.093 691.269 353.398C678.143 321.703 658.902 292.905 634.645 268.646C610.388 244.388 581.59 225.145 549.896 212.016C518.202 198.888 484.233 192.131 449.927 192.131C415.622 192.131 381.652 198.888 349.959 212.016C318.265 225.145 289.467 244.388 265.21 268.646C240.953 292.905 221.712 321.703 208.586 353.398C195.459 385.093 188.704 419.063 188.706 453.368Z" fill="#4381EF"/>
        <path d="M449.928 711.735C398.291 711.735 347.815 696.423 304.881 667.736C261.947 639.048 228.485 598.273 208.724 550.568C188.964 502.863 183.794 450.369 193.868 399.725C203.941 349.081 228.806 302.562 265.319 266.049C301.831 229.537 348.35 204.672 398.994 194.598C449.638 184.525 502.132 189.695 549.837 209.455C597.543 229.215 638.317 262.678 667.005 305.612C695.692 348.546 711.004 399.022 711.004 450.658C711.004 484.943 704.251 518.893 691.131 550.568C678.01 582.243 658.78 611.024 634.536 635.267C610.293 659.511 581.512 678.741 549.837 691.862C518.162 704.982 484.213 711.735 449.928 711.735ZM449.928 218.59C404.029 218.59 359.161 232.201 320.997 257.701C282.834 283.201 253.089 319.445 235.525 361.85C217.96 404.255 213.364 450.916 222.319 495.933C231.273 540.949 253.375 582.3 285.831 614.755C318.286 647.21 359.636 669.313 404.653 678.267C449.67 687.222 496.331 682.626 538.736 665.061C581.141 647.497 617.385 617.752 642.885 579.588C668.385 541.425 681.996 496.557 681.996 450.658C682.072 420.134 676.125 389.894 664.497 361.672C652.869 333.449 635.787 307.797 614.23 286.186C592.673 264.575 567.064 247.429 538.87 235.731C510.677 224.032 480.452 218.01 449.928 218.01V218.59Z" fill="white"/>
    </g>
    <defs>
        <clipPath id="clip0_0_3">
            <rect width="899.26" height="899.26" fill="white" transform="translate(0.299988 0.73999)"/>
        </clipPath>
    </defs>
</svg>
